<svg xmlns="http://www.w3.org/2000/svg" width="32" height="32" viewBox="0 0 32 32">
  <!-- 托盘模板图：四瓣 X mark，纯黑 + 透明（mac template image） -->
  <path d="M 469.57 469.57 C 474.29 464.86 477.97 466.09 483.72 455.43 C 489.46 444.77 498.51 421.00 504.06 405.63 C 509.61 390.26 513.19 376.86 517.01 363.21 C 520.84 349.56 524.10 336.48 527.03 323.73 C 529.97 310.97 532.49 298.63 534.63 286.66 C 536.78 274.70 538.54 263.11 539.90 251.93 C 541.26 240.75 542.24 229.95 542.80 219.57 C 543.35 209.20 543.51 199.22 543.22 189.69 C 542.93 180.15 542.23 171.03 541.07 162.38 C 539.90 153.72 538.31 145.49 536.24 137.74 C 534.17 129.99 531.65 122.69 528.64 115.88 C 525.64 109.06 522.17 102.71 518.22 96.84 C 514.27 90.97 509.84 85.58 504.93 80.66 C 500.02 75.75 494.63 71.33 488.76 67.37 C 482.89 63.42 476.53 59.95 469.72 56.95 C 462.90 53.95 455.60 51.43 447.85 49.36 C 440.10 47.29 431.87 45.69 423.22 44.53 C 414.56 43.36 405.44 42.66 395.91 42.37 C 386.38 42.08 376.40 42.24 366.02 42.80 C 355.65 43.35 344.85 44.33 333.66 45.69 C 322.48 47.05 310.90 48.82 298.93 50.96 C 286.96 53.11 274.62 55.63 261.87 58.56 C 249.11 61.50 236.04 64.75 222.39 68.58 C 208.74 72.41 195.34 75.99 179.97 81.54 C 164.60 87.09 151.43 106.74 130.16 101.88 C 108.90 97.02 57.09 47.67 52.38 52.38 C 47.67 57.09 97.02 108.90 101.88 130.16 C 106.74 151.43 87.09 164.60 81.54 179.97 C 75.99 195.34 72.41 208.74 68.58 222.39 C 64.75 236.04 61.50 249.11 58.56 261.87 C 55.63 274.62 53.11 286.96 50.96 298.93 C 48.82 310.90 47.05 322.48 45.69 333.66 C 44.33 344.85 43.35 355.65 42.80 366.02 C 42.24 376.40 42.08 386.38 42.37 395.91 C 42.66 405.44 43.36 414.56 44.53 423.22 C 45.69 431.87 47.29 440.10 49.36 447.85 C 51.43 455.60 53.95 462.90 56.95 469.72 C 59.95 476.53 63.42 482.89 67.37 488.76 C 71.33 494.63 75.75 500.02 80.66 504.93 C 85.58 509.84 90.97 514.27 96.84 518.22 C 102.71 522.17 109.06 525.64 115.88 528.64 C 122.69 531.65 129.99 534.17 137.74 536.24 C 145.49 538.31 153.72 539.90 162.38 541.07 C 171.03 542.23 180.15 542.93 189.69 543.22 C 199.22 543.51 209.20 543.35 219.57 542.80 C 229.95 542.24 240.75 541.26 251.93 539.90 C 263.11 538.54 274.70 536.78 286.66 534.63 C 298.63 532.49 310.97 529.97 323.73 527.03 C 336.48 524.10 349.56 520.84 363.21 517.01 C 376.86 513.19 390.26 509.61 405.63 504.06 C 421.00 498.51 444.77 489.46 455.43 483.72 C 466.09 477.97 464.86 474.29 469.57 469.57 Z" transform="translate(5.3015 5.3015) scale(0.020896)" fill="#000000"/>
<path d="M 554.43 469.57 C 559.14 474.29 557.91 477.97 568.57 483.72 C 579.23 489.46 603.00 498.51 618.37 504.06 C 633.74 509.61 647.14 513.19 660.79 517.01 C 674.44 520.84 687.52 524.10 700.27 527.03 C 713.03 529.97 725.37 532.49 737.34 534.63 C 749.30 536.78 760.89 538.54 772.07 539.90 C 783.25 541.26 794.05 542.24 804.43 542.80 C 814.80 543.35 824.78 543.51 834.31 543.22 C 843.85 542.93 852.97 542.23 861.62 541.07 C 870.28 539.90 878.51 538.31 886.26 536.24 C 894.01 534.17 901.31 531.65 908.12 528.64 C 914.94 525.64 921.29 522.17 927.16 518.22 C 933.03 514.27 938.42 509.84 943.34 504.93 C 948.25 500.02 952.67 494.63 956.63 488.76 C 960.58 482.89 964.05 476.53 967.05 469.72 C 970.05 462.90 972.57 455.60 974.64 447.85 C 976.71 440.10 978.31 431.87 979.47 423.22 C 980.64 414.56 981.34 405.44 981.63 395.91 C 981.92 386.38 981.76 376.40 981.20 366.02 C 980.65 355.65 979.67 344.85 978.31 333.66 C 976.95 322.48 975.18 310.90 973.04 298.93 C 970.89 286.96 968.37 274.62 965.44 261.87 C 962.50 249.11 959.25 236.04 955.42 222.39 C 951.59 208.74 948.01 195.34 942.46 179.97 C 936.91 164.60 917.26 151.43 922.12 130.16 C 926.98 108.90 976.33 57.09 971.62 52.38 C 966.91 47.67 915.10 97.02 893.84 101.88 C 872.57 106.74 859.40 87.09 844.03 81.54 C 828.66 75.99 815.26 72.41 801.61 68.58 C 787.96 64.75 774.89 61.50 762.13 58.56 C 749.38 55.63 737.04 53.11 725.07 50.96 C 713.10 48.82 701.52 47.05 690.34 45.69 C 679.15 44.33 668.35 43.35 657.98 42.80 C 647.60 42.24 637.62 42.08 628.09 42.37 C 618.56 42.66 609.44 43.36 600.78 44.53 C 592.13 45.69 583.90 47.29 576.15 49.36 C 568.40 51.43 561.10 53.95 554.28 56.95 C 547.47 59.95 541.11 63.42 535.24 67.37 C 529.37 71.33 523.98 75.75 519.07 80.66 C 514.16 85.58 509.73 90.97 505.78 96.84 C 501.83 102.71 498.36 109.06 495.36 115.88 C 492.35 122.69 489.83 129.99 487.76 137.74 C 485.69 145.49 484.10 153.72 482.93 162.38 C 481.77 171.03 481.07 180.15 480.78 189.69 C 480.49 199.22 480.65 209.20 481.20 219.57 C 481.76 229.95 482.74 240.75 484.10 251.93 C 485.46 263.11 487.22 274.70 489.37 286.66 C 491.51 298.63 494.03 310.97 496.97 323.73 C 499.90 336.48 503.16 349.56 506.99 363.21 C 510.81 376.86 514.39 390.26 519.94 405.63 C 525.49 421.00 534.54 444.77 540.28 455.43 C 546.03 466.09 549.71 464.86 554.43 469.57 Z" transform="translate(5.3015 5.3015) scale(0.020896)" fill="#000000"/>
<path d="M 469.57 554.43 C 464.86 549.71 466.09 546.03 455.43 540.28 C 444.77 534.54 421.00 525.49 405.63 519.94 C 390.26 514.39 376.86 510.81 363.21 506.99 C 349.56 503.16 336.48 499.90 323.73 496.97 C 310.97 494.03 298.63 491.51 286.66 489.37 C 274.70 487.22 263.11 485.46 251.93 484.10 C 240.75 482.74 229.95 481.76 219.57 481.20 C 209.20 480.65 199.22 480.49 189.69 480.78 C 180.15 481.07 171.03 481.77 162.38 482.93 C 153.72 484.10 145.49 485.69 137.74 487.76 C 129.99 489.83 122.69 492.35 115.88 495.36 C 109.06 498.36 102.71 501.83 96.84 505.78 C 90.97 509.73 85.58 514.16 80.66 519.07 C 75.75 523.98 71.33 529.37 67.37 535.24 C 63.42 541.11 59.95 547.47 56.95 554.28 C 53.95 561.10 51.43 568.40 49.36 576.15 C 47.29 583.90 45.69 592.13 44.53 600.78 C 43.36 609.44 42.66 618.56 42.37 628.09 C 42.08 637.62 42.24 647.60 42.80 657.98 C 43.35 668.35 44.33 679.15 45.69 690.34 C 47.05 701.52 48.82 713.10 50.96 725.07 C 53.11 737.04 55.63 749.38 58.56 762.13 C 61.50 774.89 64.75 787.96 68.58 801.61 C 72.41 815.26 75.99 828.66 81.54 844.03 C 87.09 859.40 106.74 872.57 101.88 893.84 C 97.02 915.10 47.67 966.91 52.38 971.62 C 57.09 976.33 108.90 926.98 130.16 922.12 C 151.43 917.26 164.60 936.91 179.97 942.46 C 195.34 948.01 208.74 951.59 222.39 955.42 C 236.04 959.25 249.11 962.50 261.87 965.44 C 274.62 968.37 286.96 970.89 298.93 973.04 C 310.90 975.18 322.48 976.95 333.66 978.31 C 344.85 979.67 355.65 980.65 366.02 981.20 C 376.40 981.76 386.38 981.92 395.91 981.63 C 405.44 981.34 414.56 980.64 423.22 979.47 C 431.87 978.31 440.10 976.71 447.85 974.64 C 455.60 972.57 462.90 970.05 469.72 967.05 C 476.53 964.05 482.89 960.58 488.76 956.63 C 494.63 952.67 500.02 948.25 504.93 943.34 C 509.84 938.42 514.27 933.03 518.22 927.16 C 522.17 921.29 525.64 914.94 528.64 908.12 C 531.65 901.31 534.17 894.01 536.24 886.26 C 538.31 878.51 539.90 870.28 541.07 861.62 C 542.23 852.97 542.93 843.85 543.22 834.31 C 543.51 824.78 543.35 814.80 542.80 804.43 C 542.24 794.05 541.26 783.25 539.90 772.07 C 538.54 760.89 536.78 749.30 534.63 737.34 C 532.49 725.37 529.97 713.03 527.03 700.27 C 524.10 687.52 520.84 674.44 517.01 660.79 C 513.19 647.14 509.61 633.74 504.06 618.37 C 498.51 603.00 489.46 579.23 483.72 568.57 C 477.97 557.91 474.29 559.14 469.57 554.43 Z" transform="translate(5.3015 5.3015) scale(0.020896)" fill="#000000"/>
<path d="M 554.43 554.43 C 549.71 559.14 546.03 557.91 540.28 568.57 C 534.54 579.23 525.49 603.00 519.94 618.37 C 514.39 633.74 510.81 647.14 506.99 660.79 C 503.16 674.44 499.90 687.52 496.97 700.27 C 494.03 713.03 491.51 725.37 489.37 737.34 C 487.22 749.30 485.46 760.89 484.10 772.07 C 482.74 783.25 481.76 794.05 481.20 804.43 C 480.65 814.80 480.49 824.78 480.78 834.31 C 481.07 843.85 481.77 852.97 482.93 861.62 C 484.10 870.28 485.69 878.51 487.76 886.26 C 489.83 894.01 492.35 901.31 495.36 908.12 C 498.36 914.94 501.83 921.29 505.78 927.16 C 509.73 933.03 514.16 938.42 519.07 943.34 C 523.98 948.25 529.37 952.67 535.24 956.63 C 541.11 960.58 547.47 964.05 554.28 967.05 C 561.10 970.05 568.40 972.57 576.15 974.64 C 583.90 976.71 592.13 978.31 600.78 979.47 C 609.44 980.64 618.56 981.34 628.09 981.63 C 637.62 981.92 647.60 981.76 657.98 981.20 C 668.35 980.65 679.15 979.67 690.34 978.31 C 701.52 976.95 713.10 975.18 725.07 973.04 C 737.04 970.89 749.38 968.37 762.13 965.44 C 774.89 962.50 787.96 959.25 801.61 955.42 C 815.26 951.59 828.66 948.01 844.03 942.46 C 859.40 936.91 872.57 917.26 893.84 922.12 C 915.10 926.98 966.91 976.33 971.62 971.62 C 976.33 966.91 926.98 915.10 922.12 893.84 C 917.26 872.57 936.91 859.40 942.46 844.03 C 948.01 828.66 951.59 815.26 955.42 801.61 C 959.25 787.96 962.50 774.89 965.44 762.13 C 968.37 749.38 970.89 737.04 973.04 725.07 C 975.18 713.10 976.95 701.52 978.31 690.34 C 979.67 679.15 980.65 668.35 981.20 657.98 C 981.76 647.60 981.92 637.62 981.63 628.09 C 981.34 618.56 980.64 609.44 979.47 600.78 C 978.31 592.13 976.71 583.90 974.64 576.15 C 972.57 568.40 970.05 561.10 967.05 554.28 C 964.05 547.47 960.58 541.11 956.63 535.24 C 952.67 529.37 948.25 523.98 943.34 519.07 C 938.42 514.16 933.03 509.73 927.16 505.78 C 921.29 501.83 914.94 498.36 908.12 495.36 C 901.31 492.35 894.01 489.83 886.26 487.76 C 878.51 485.69 870.28 484.10 861.62 482.93 C 852.97 481.77 843.85 481.07 834.31 480.78 C 824.78 480.49 814.80 480.65 804.43 481.20 C 794.05 481.76 783.25 482.74 772.07 484.10 C 760.89 485.46 749.30 487.22 737.34 489.37 C 725.37 491.51 713.03 494.03 700.27 496.97 C 687.52 499.90 674.44 503.16 660.79 506.99 C 647.14 510.81 633.74 514.39 618.37 519.94 C 603.00 525.49 579.23 534.54 568.57 540.28 C 557.91 546.03 559.14 549.71 554.43 554.43 Z" transform="translate(5.3015 5.3015) scale(0.020896)" fill="#000000"/>
</svg>
